<svg xmlns="http://www.w3.org/2000/svg" width="800" height="800" viewBox="0 0 800 800">
  <defs>
    <pattern id="circuit" width="180" height="180" patternUnits="userSpaceOnUse">
      <g stroke="#c27b3a" stroke-opacity="0.7" stroke-width="3.2" fill="none" stroke-linecap="round" stroke-linejoin="round">
        <path d="M12 26h76v36h64" />
        <path d="M12 124h92v36h48" />
        <path d="M124 26v60" />
        <path d="M168 26v54" />
        <path d="M36 72h68" />
        <path d="M82 148h64" />
        <path d="M54 170h98" />
        <path d="M24 90v30h38" />
        <path d="M138 80h30v48" />
        <path d="M96 108v28h40" />
      </g>
      <g stroke="#d9a16a" stroke-opacity="0.5" stroke-width="2" fill="none" stroke-linecap="round" stroke-linejoin="round">
        <path d="M28 40h48v24h26" />
        <path d="M30 156h44v-18h36" />
        <path d="M146 150v-32h20" />
        <path d="M70 28v22h-30" />
        <path d="M110 24h24v24" />
        <path d="M20 110h24v24" />
      </g>
      <g fill="#c27b3a" fill-opacity="0.78">
        <circle cx="12" cy="26" r="4.5" />
        <circle cx="88" cy="26" r="4.5" />
        <circle cx="88" cy="62" r="4.5" />
        <circle cx="164" cy="62" r="4.5" />
        <circle cx="12" cy="124" r="4.5" />
        <circle cx="104" cy="124" r="4.5" />
        <circle cx="104" cy="160" r="4.5" />
        <circle cx="152" cy="160" r="4.5" />
        <circle cx="124" cy="26" r="4.5" />
        <circle cx="124" cy="86" r="4.5" />
        <circle cx="168" cy="108" r="4.5" />
        <circle cx="168" cy="170" r="4.5" />
        <circle cx="36" cy="72" r="4.5" />
        <circle cx="104" cy="72" r="4.5" />
        <circle cx="82" cy="148" r="4.5" />
        <circle cx="146" cy="148" r="4.5" />
        <circle cx="24" cy="90" r="4.5" />
        <circle cx="62" cy="120" r="4.5" />
        <circle cx="138" cy="80" r="4.5" />
        <circle cx="172" cy="120" r="4.5" />
      </g>
      <g fill="none" stroke="#c27b3a" stroke-opacity="0.65" stroke-width="2.2">
        <circle cx="88" cy="62" r="7" />
        <circle cx="104" cy="124" r="7" />
        <circle cx="82" cy="148" r="7" />
        <circle cx="36" cy="72" r="7" />
      </g>
      <g fill="#f5ede3" fill-opacity="0.45">
        <circle cx="88" cy="62" r="2.2" />
        <circle cx="104" cy="124" r="2.2" />
        <circle cx="82" cy="148" r="2.2" />
        <circle cx="36" cy="72" r="2.2" />
      </g>
      <g fill="#d9a16a" fill-opacity="0.55">
        <rect x="30" y="34" width="14" height="6" rx="2" />
        <rect x="118" y="132" width="14" height="6" rx="2" />
        <rect x="150" y="28" width="14" height="6" rx="2" />
        <rect x="148" y="148" width="14" height="6" rx="2" />
      </g>
    </pattern>
  </defs>
  <rect width="100%" height="100%" fill="url(#circuit)" />
</svg>
