<svg xmlns="http://www.w3.org/2000/svg" width="800" height="800" viewBox="0 0 800 800">
  <defs>
    <pattern id="circuit" width="200" height="200" patternUnits="userSpaceOnUse">
      <g stroke="#0ea5e9" stroke-opacity="0.38" stroke-width="2.4" fill="none" stroke-linecap="round" stroke-linejoin="round">
        <path d="M16 24h72v40h76" />
        <path d="M16 124h92v40h52" />
        <path d="M124 24v64" />
        <path d="M168 116v60" />
        <path d="M40 72h68" />
        <path d="M86 148h64" />
        <path d="M60 180h96" />
        <path d="M180 24v60" />
        <path d="M24 88v36h44" />
        <path d="M140 80h36v40" />
      </g>
      <g stroke="#14b8a6" stroke-opacity="0.3" stroke-width="3.2" fill="none" stroke-linecap="round" stroke-linejoin="round">
        <path d="M24 40h56v30h28" />
        <path d="M108 120h68" />
        <path d="M32 164h48v-24h32" />
        <path d="M148 156v-36h28" />
      </g>
      <g fill="#14b8a6" fill-opacity="0.45">
        <circle cx="16" cy="24" r="4" />
        <circle cx="88" cy="24" r="4" />
        <circle cx="88" cy="64" r="4" />
        <circle cx="164" cy="64" r="4" />
        <circle cx="16" cy="124" r="4" />
        <circle cx="108" cy="124" r="4" />
        <circle cx="108" cy="164" r="4" />
        <circle cx="160" cy="164" r="4" />
        <circle cx="124" cy="24" r="4" />
        <circle cx="124" cy="88" r="4" />
        <circle cx="168" cy="116" r="4" />
        <circle cx="168" cy="176" r="4" />
        <circle cx="40" cy="72" r="4" />
        <circle cx="108" cy="72" r="4" />
        <circle cx="86" cy="148" r="4" />
        <circle cx="150" cy="148" r="4" />
        <circle cx="24" cy="88" r="4" />
        <circle cx="68" cy="124" r="4" />
        <circle cx="140" cy="80" r="4" />
        <circle cx="176" cy="120" r="4" />
      </g>
      <g fill="#0ea5e9" fill-opacity="0.35">
        <rect x="30" y="32" width="10" height="10" rx="2" />
        <rect x="118" y="132" width="10" height="10" rx="2" />
        <rect x="150" y="28" width="10" height="10" rx="2" />
        <rect x="150" y="148" width="10" height="10" rx="2" />
      </g>
    </pattern>
  </defs>
  <rect width="100%" height="100%" fill="url(#circuit)" />
</svg>
