<svg xmlns="http://www.w3.org/2000/svg" width="800" height="800" viewBox="0 0 800 800">
  <defs>
    <pattern id="circuit" width="200" height="200" patternUnits="userSpaceOnUse">
      <g stroke="#0ea5e9" stroke-opacity="0.22" stroke-width="2" fill="none" stroke-linecap="round" stroke-linejoin="round">
        <path d="M20 20h70v40h60" />
        <path d="M20 120h90v40h50" />
        <path d="M120 20v60" />
        <path d="M160 120v60" />
        <path d="M40 60h60" />
        <path d="M80 140h60" />
        <path d="M60 180h90" />
        <path d="M180 20v60" />
      </g>
      <g fill="#14b8a6" fill-opacity="0.24">
        <circle cx="20" cy="20" r="3" />
        <circle cx="90" cy="20" r="3" />
        <circle cx="90" cy="60" r="3" />
        <circle cx="150" cy="60" r="3" />
        <circle cx="20" cy="120" r="3" />
        <circle cx="110" cy="120" r="3" />
        <circle cx="110" cy="160" r="3" />
        <circle cx="160" cy="160" r="3" />
        <circle cx="120" cy="20" r="3" />
        <circle cx="120" cy="80" r="3" />
        <circle cx="160" cy="120" r="3" />
        <circle cx="160" cy="180" r="3" />
        <circle cx="40" cy="60" r="3" />
        <circle cx="100" cy="60" r="3" />
        <circle cx="80" cy="140" r="3" />
        <circle cx="140" cy="140" r="3" />
      </g>
    </pattern>
  </defs>
  <rect width="100%" height="100%" fill="url(#circuit)" />
</svg>
